<svg width="124" height="17" fill="none" xmlns="http://www.w3.org/2000/svg"><path d="M15.832 7.849c1.192-.555 2.056-2.035 2.056-3.556 0-2.22-1.747-4.028-4.275-4.028H.274v3.453H11.62c.74.02 1.336.616 1.336 1.356 0 .76-.616 1.377-1.377 1.377H.254v9.557h13.914a4.224 4.224 0 004.254-4.254c.02-1.747-1.09-3.35-2.59-3.905zm-3.76 4.891H4.898V9.801h6.967c.103 0 .247 0 .288.02.719.104 1.253.72 1.253 1.46 0 .76-.575 1.398-1.336 1.46zM27.547.265l-7.255 15.743h4.912l5.117-11.94 3.597 8.446h-3.597v3.494h10.01L33.074.265h-5.528zm16.031 0v15.743h11.653v-3.514h-7.029V.265h-4.624zm15.64 0v15.743H70.89v-3.514h-7.049V.265h-4.624zm14.962 0v12.167c0 2.014 1.686 3.576 3.823 3.576h8.283c2.137 0 3.823-1.582 3.823-3.576V.265h-4.625v11.653a.596.596 0 01-.596.596h-5.487a.596.596 0 01-.596-.596V.265H74.18zM94.567 7.11v8.899h4.625v-5.55h7.028V7.11H94.567zM107.228.265h-12.66v3.576h12.66V.265zm3.7 6.845v8.899h4.624v-5.55h7.296V7.11h-11.92zm12.66-6.845h-12.66v3.576h12.66V.265z" fill="#000"/></svg>