<svg width="114" height="28" fill="none" xmlns="http://www.w3.org/2000/svg"><path fill="#CDCDCD" d="M0 0h114v27.147H0z"/><path fill-rule="evenodd" clip-rule="evenodd" d="M6.681 13.489v9.357l3.911-.032 3.912-.032.826-.223c5.042-1.364 5.453-8.23.563-9.392-.536-.127-.528-.148.154-.384 3.744-1.3 3.854-6.623.168-8.05-1.327-.513-1.448-.525-5.665-.565l-3.869-.036v9.357zM12.762 8.2c1.818.521 1.424 2.87-.52 3.098l-.487.057V8.119h.36c.198 0 .49.037.647.082zm23.73 1.157c-2.377.282-3.995 1.64-4.27 3.58-.283 1.99.557 3.214 3.079 4.49 1.728.875 1.992 1.124 1.751 1.653-.324.711-1.592.523-2.935-.435l-.535-.382-.981 1.493c-1.095 1.668-1.08 1.594-.406 2.028 4.057 2.608 8.62 1.52 9.392-2.24.428-2.087-.575-3.514-3.515-5.001-1.45-.734-1.833-1.285-1.178-1.695.502-.316 1.327-.15 2.319.465l.353.22.714-1.038c1.063-1.543 1.16-1.69 1.16-1.754 0-.384-3.63-1.518-4.565-1.427l-.383.043zm9.663.033c-2.516.296-4.15 2.093-4.018 4.417.094 1.65.978 2.612 3.54 3.847 1.338.646 1.642 1.069 1.151 1.604-.46.503-1.68.218-2.848-.667-.244-.184-.455-.324-.468-.31-.227.247-1.981 3.057-1.945 3.116.093.15 1.426.893 2.156 1.202 4.13 1.746 8.069-.34 7.848-4.158-.092-1.585-1.104-2.664-3.776-4.023-1.275-.648-1.52-1-1.034-1.486.446-.446 1.49-.261 2.473.439.137.098.26.164.272.147.013-.016.378-.544.812-1.172l.945-1.367.157-.226-.445-.255c-1.482-.848-3.362-1.28-4.82-1.108zm28.25.002c-2.63.39-4.14 4.426-3.415 9.128.671 4.349 3.983 6.164 6.53 3.58.65-.662.623-.666.623.099v.634h4.735V9.726h-4.734v.634c0 .75-.007.753-.518.217-.962-1.008-1.951-1.372-3.22-1.184zm-15.12.21c-.804.225-1.664.839-2.127 1.52-.295.432-.327.378-.327-.552v-.845h-4.567v13.108h4.641l.027-4.038c.023-3.665.04-4.064.175-4.31.293-.537.992-.632 1.366-.187l.218.26v8.276h4.821v-4.02c0-4.28.017-4.474.41-4.684.297-.159.745-.108 1.002.113l.237.204.042 4.172.043 4.173 2.394.022 2.395.023-.029-5.435-.029-5.435-.203-.58c-.876-2.503-4.863-2.599-6.13-.149-.18.347-.23.333-.413-.113-.545-1.325-2.272-1.992-3.945-1.523zm31.915-.01c-.941.214-1.745.763-2.422 1.655l-.225.296-.004-.91-.004-.908h-4.567v13.108h4.736v-3.97c0-2.606.03-4.05.09-4.207.367-.967 1.494-.822 1.686.218.048.258.084 2.076.084 4.207v3.752h4.657l-.024-5.56-.024-5.561-.203-.505c-.547-1.358-2.064-2.007-3.78-1.616zm12.345 0c-.882.2-1.659.697-2.197 1.402-.434.57-.456.549-.456-.424v-.845h-4.567v13.108h4.736v-3.978c0-4.715.02-4.817.944-4.817.864 0 .917.287.917 5.043v3.752h4.651l-.001-5.392c-.001-5.71-.007-5.806-.406-6.586-.552-1.08-2.082-1.614-3.621-1.263zm-83.568 4.636c.038 4.998.052 5.146.62 6.386 1.601 3.493 8.506 3.547 10.134.079.576-1.227.586-1.322.62-6.38l.03-4.588h-4.826v8.808l-.247.247c-.492.492-1.338.263-1.526-.412-.054-.195-.087-1.885-.087-4.478V9.726h-4.751l.033 4.503zm89.582-4.346c-1.234.56-1.297 2.3-.104 2.877a1.6 1.6 0 001.953-.413c1.049-1.247-.368-3.136-1.849-2.464zm1.195.318c1.181.56.766 2.432-.54 2.432-.78 0-1.288-.518-1.288-1.316 0-.961.942-1.537 1.828-1.116zm-1.236 1.09v.887h.211c.191 0 .212-.034.212-.338 0-.186.037-.338.083-.338.045 0 .16.152.255.338.131.257.223.338.382.338.245 0 .259-.082.077-.436-.126-.243-.124-.269.042-.445.454-.483.039-.895-.902-.895h-.36v.888zm.888-.34c0 .122-.065.178-.233.197-.201.023-.232-.003-.232-.196s.031-.22.232-.196c.168.02.233.074.233.196zm-33.238 2.595c1.232.56 1.056 5.246-.207 5.524-.82.18-1.27-.813-1.27-2.794 0-2.116.558-3.149 1.477-2.73zm-64.271 1.497c1.83.84 1.24 3.562-.772 3.562h-.37v-3.72l.402.001c.221.001.554.072.74.157z" fill="#000"/></svg>