<?xml version="1.0" encoding="UTF-8"?><svg id="Ebene_1" xmlns="http://www.w3.org/2000/svg" viewBox="0 0 926.22 251.31"><defs><style>.cls-1{fill:#004494;}.cls-2{fill:#ed1c24;}</style></defs><g><polygon class="cls-2" points="570.67 233.58 590.26 233.58 580.15 251 560.87 251 570.67 233.58 570.67 233.58"/><polygon points="590.78 196.05 622.4 251.07 600.28 251.07 579.67 215.48 590.78 196.05 590.78 196.05"/><polygon points="622.28 200.82 646.99 200.77 658.43 225.88 670.09 200.82 695.13 200.82 695.13 251.1 676.83 251.1 676.83 228.27 666.14 251.31 651.11 251.31 640.62 228.27 640.62 251.1 622.28 251.1 622.28 200.82 622.28 200.82"/><polygon points="700.77 200.75 746.92 200.75 746.92 214.21 719.33 214.21 719.33 217.75 746.92 217.75 746.92 230.71 719.33 230.71 719.33 236.87 746.92 236.87 746.92 251.03 700.77 251.03 700.77 200.75 700.77 200.75"/><polygon points="807.48 200.78 853.8 200.78 853.8 214.25 826.1 214.25 826.1 217.79 853.8 217.79 853.8 230.73 826.1 230.73 826.1 236.9 853.8 236.9 853.8 251.07 807.48 251.07 807.48 200.78 807.48 200.78"/><polygon points="750.23 200.71 803.98 200.71 803.98 214.17 786.23 214.17 786.23 250.99 767.77 250.99 767.77 214.17 750.23 214.17 750.23 200.71 750.23 200.71"/><polygon points="858.82 200.71 878.13 200.71 878.13 214.49 890.7 200.71 911.24 200.71 892.89 220.87 913.38 250.99 890.22 250.99 880.22 234.27 878.13 236.83 878.13 250.99 858.82 250.99 858.82 200.71 858.82 200.71"/><path d="M919.19,214.63c-3.88,0-7.03-3.16-7.03-7.03s3.15-7.03,7.03-7.03,7.03,3.16,7.03,7.03-3.15,7.03-7.03,7.03Zm0-12.91c-3.24,0-5.88,2.64-5.88,5.88s2.63,5.88,5.88,5.88,5.88-2.64,5.88-5.88-2.63-5.88-5.88-5.88Z"/><path d="M917.36,204.74h2.52c.5,0,1.34,.09,1.34,1.25s-.78,1.29-1.52,1.29h-2.34v-2.54Zm0,3.4h2.45c1.21,0,1.33,.72,1.33,1.33,0,.28,.03,1.41,.18,1.87h1.24v-.17c-.31-.18-.36-.33-.37-.75l-.06-1.35c-.04-1.04-.47-1.23-.89-1.4,.48-.28,1.04-.69,1.04-1.79,0-1.58-1.23-2.01-2.46-2.01h-3.46v7.47h1.01v-3.2Z"/></g><g><path class="cls-1" d="M136.08,48.42V0h-30.19V31.54c-7.57-2.31-15.6-3.56-23.92-3.56C36.7,27.99,0,64.68,0,109.96s36.69,81.96,81.97,81.97c45.27-.01,81.95-36.71,81.97-81.97,0-24.53-10.79-46.52-27.86-61.54Zm-54.11,131.28c-38.51-.07-69.67-31.23-69.75-69.74,.07-38.52,31.22-69.68,69.75-69.75,8.41,.01,16.46,1.51,23.92,4.24v17.37c-7.17-3.54-15.22-5.52-23.74-5.52-29.73,0-53.92,24.19-53.92,53.92s24.19,53.92,53.92,53.92,53.74-24.02,53.91-53.61h.02v-44.51c9.75,11.99,15.6,27.27,15.63,43.93-.07,38.51-31.23,69.67-69.74,69.74Zm23.91-69.47c0,13.08-10.65,23.73-23.73,23.73s-23.73-10.64-23.73-23.73,10.64-23.73,23.73-23.73,23.73,10.65,23.73,23.73Z"/><path class="cls-1" d="M214.07,144.24v-8.51h-.36c-2.13,3.55-4.89,6.11-8.28,7.69-3.39,1.57-6.86,2.36-10.4,2.36-4.5,0-8.18-.59-11.06-1.78-2.88-1.18-5.15-2.85-6.8-5.03-1.66-2.17-2.82-4.8-3.49-7.92-.67-3.11-1-6.56-1-10.34v-37.6h16.79v34.53c0,5.04,.79,8.81,2.36,11.29,1.58,2.49,4.38,3.73,8.4,3.73,4.57,0,7.88-1.36,9.93-4.08,2.05-2.72,3.08-7.19,3.08-13.42v-32.04h16.79v61.13h-15.96Z"/><path class="cls-1" d="M254.52,83.11v8.51h.36c2.13-3.55,4.88-6.13,8.28-7.75,3.39-1.62,6.86-2.42,10.4-2.42,4.49,0,8.18,.61,11.06,1.83,2.88,1.23,5.15,2.92,6.8,5.09,1.66,2.17,2.82,4.81,3.49,7.92,.67,3.12,1.01,6.56,1.01,10.35v37.6h-16.79v-34.53c0-5.04-.79-8.81-2.36-11.3-1.58-2.48-4.38-3.72-8.4-3.72-4.57,0-7.89,1.36-9.93,4.08-2.05,2.72-3.07,7.19-3.07,13.42v32.05h-16.79v-61.13h15.96Z"/><path class="cls-1" d="M321.73,59.81v45.29l21.17-21.99h19.87l-23.06,22.47,25.66,38.67h-20.34l-16.79-27.32-6.5,6.27v21.05h-16.79V59.81h16.79Z"/><path class="cls-1" d="M380.8,129.58c2.52,2.45,6.15,3.67,10.88,3.67,3.39,0,6.31-.85,8.75-2.54,2.44-1.69,3.94-3.49,4.49-5.38h14.78c-2.36,7.33-5.99,12.58-10.88,15.72-4.89,3.16-10.8,4.73-17.74,4.73-4.81,0-9.14-.77-13.01-2.3-3.86-1.54-7.13-3.73-9.81-6.56-2.68-2.84-4.75-6.23-6.21-10.17-1.46-3.94-2.19-8.28-2.19-13.01s.75-8.83,2.25-12.77c1.5-3.94,3.63-7.35,6.39-10.22,2.76-2.88,6.05-5.15,9.88-6.8,3.82-1.66,8.06-2.48,12.71-2.48,5.2,0,9.73,1,13.6,3.01,3.86,2.01,7.04,4.71,9.52,8.1,2.48,3.39,4.28,7.25,5.38,11.59,1.1,4.34,1.5,8.87,1.18,13.6h-44.11c.24,5.44,1.62,9.38,4.14,11.82Zm18.98-32.16c-2.01-2.21-5.06-3.31-9.16-3.31-2.68,0-4.91,.45-6.68,1.36-1.77,.91-3.19,2.03-4.26,3.37-1.06,1.35-1.81,2.76-2.25,4.26-.43,1.5-.69,2.84-.77,4.02h27.32c-.79-4.26-2.19-7.49-4.2-9.7Z"/><path class="cls-1" d="M443.56,83.11v11.35h.24c.79-1.89,1.85-3.64,3.19-5.26,1.34-1.61,2.88-3,4.61-4.14,1.73-1.14,3.59-2.03,5.56-2.66,1.97-.63,4.02-.95,6.15-.95,1.1,0,2.32,.2,3.67,.59v15.61c-.79-.16-1.74-.3-2.84-.41-1.1-.12-2.17-.18-3.19-.18-3.07,0-5.68,.51-7.8,1.54-2.13,1.02-3.84,2.42-5.15,4.2-1.3,1.77-2.23,3.84-2.78,6.2-.55,2.36-.83,4.93-.83,7.69v27.55h-16.79v-61.13h15.96Z"/><path class="cls-1" d="M488.73,83.11v8.27h.24c2.2-3.15,4.87-5.59,7.98-7.33,3.11-1.73,6.68-2.6,10.7-2.6s7.39,.75,10.58,2.25c3.19,1.5,5.62,4.13,7.27,7.92,1.81-2.68,4.27-5.04,7.39-7.1,3.11-2.05,6.8-3.07,11.06-3.07,3.23,0,6.22,.39,8.99,1.18,2.76,.79,5.12,2.05,7.1,3.78,1.97,1.73,3.5,4,4.61,6.8,1.11,2.79,1.66,6.17,1.66,10.11v40.92h-16.79v-34.65c0-2.05-.08-3.98-.24-5.79-.16-1.81-.59-3.39-1.3-4.73-.71-1.34-1.75-2.41-3.13-3.2-1.38-.78-3.25-1.18-5.62-1.18s-4.28,.46-5.74,1.36c-1.46,.91-2.6,2.09-3.43,3.55-.83,1.46-1.38,3.12-1.65,4.97-.28,1.86-.42,3.73-.42,5.62v34.06h-16.79v-34.29c0-1.81-.04-3.61-.12-5.38-.08-1.77-.42-3.41-1.01-4.91-.59-1.5-1.58-2.7-2.96-3.61-1.38-.9-3.41-1.36-6.09-1.36-.79,0-1.84,.17-3.14,.53-1.3,.35-2.56,1.02-3.78,2.01-1.22,.98-2.27,2.4-3.13,4.25-.87,1.85-1.3,4.28-1.3,7.28v35.47h-16.79v-61.13h15.84Z"/><path class="cls-1" d="M574.63,100.43c1.5-3.98,3.63-7.37,6.39-10.17,2.76-2.79,6.07-4.97,9.93-6.5,3.86-1.54,8.2-2.3,13.01-2.3s9.17,.77,13.07,2.3c3.9,1.54,7.23,3.71,10,6.5,2.76,2.8,4.89,6.19,6.38,10.17,1.5,3.98,2.25,8.42,2.25,13.31s-.75,9.3-2.25,13.24c-1.5,3.94-3.62,7.32-6.38,10.11-2.76,2.8-6.09,4.95-10,6.44-3.9,1.5-8.26,2.25-13.07,2.25s-9.15-.75-13.01-2.25c-3.86-1.5-7.18-3.64-9.93-6.44-2.76-2.79-4.89-6.17-6.39-10.11-1.5-3.94-2.25-8.35-2.25-13.24s.75-9.32,2.25-13.31Zm15.25,20.46c.48,2.33,1.28,4.42,2.43,6.27,1.14,1.86,2.66,3.33,4.55,4.43,1.89,1.11,4.26,1.66,7.09,1.66s5.22-.55,7.16-1.66c1.93-1.1,3.47-2.58,4.61-4.43,1.14-1.85,1.95-3.94,2.42-6.27,.47-2.32,.71-4.71,.71-7.15s-.24-4.85-.71-7.22c-.47-2.36-1.28-4.45-2.42-6.26-1.15-1.81-2.68-3.29-4.61-4.44-1.93-1.14-4.32-1.71-7.16-1.71s-5.2,.57-7.09,1.71c-1.89,1.15-3.41,2.63-4.55,4.44-1.15,1.81-1.95,3.9-2.43,6.26-.47,2.36-.71,4.77-.71,7.22s.24,4.83,.71,7.15Z"/><path class="cls-1" d="M675.87,83.11v11.23h-12.3v30.27c0,2.84,.47,4.73,1.42,5.68,.95,.95,2.84,1.42,5.68,1.42,.94,0,1.85-.04,2.72-.12,.86-.08,1.69-.2,2.48-.35v13.01c-1.42,.24-3,.39-4.73,.47-1.73,.08-3.43,.12-5.08,.12-2.6,0-5.07-.18-7.39-.53-2.32-.35-4.37-1.05-6.15-2.07-1.77-1.02-3.17-2.48-4.2-4.37-1.03-1.9-1.54-4.38-1.54-7.45v-36.07h-10.17v-11.23h10.17v-18.33h16.79v18.33h12.3Z"/><path class="cls-1" d="M680.01,100.43c1.5-3.98,3.63-7.37,6.39-10.17,2.76-2.79,6.07-4.97,9.93-6.5,3.86-1.54,8.2-2.3,13.01-2.3s9.17,.77,13.07,2.3c3.9,1.54,7.23,3.71,9.99,6.5,2.76,2.8,4.89,6.19,6.38,10.17,1.5,3.98,2.25,8.42,2.25,13.31s-.75,9.3-2.25,13.24c-1.5,3.94-3.62,7.32-6.38,10.11-2.76,2.8-6.09,4.95-9.99,6.44-3.9,1.5-8.26,2.25-13.07,2.25s-9.14-.75-13.01-2.25c-3.86-1.5-7.17-3.64-9.93-6.44-2.76-2.79-4.89-6.17-6.39-10.11-1.5-3.94-2.25-8.35-2.25-13.24s.75-9.32,2.25-13.31Zm15.25,20.46c.48,2.33,1.28,4.42,2.43,6.27,1.14,1.86,2.66,3.33,4.55,4.43,1.89,1.11,4.26,1.66,7.09,1.66s5.22-.55,7.16-1.66c1.93-1.1,3.47-2.58,4.61-4.43,1.14-1.85,1.95-3.94,2.42-6.27,.47-2.32,.71-4.71,.71-7.15s-.24-4.85-.71-7.22c-.47-2.36-1.28-4.45-2.42-6.26-1.15-1.81-2.68-3.29-4.61-4.44-1.93-1.14-4.32-1.71-7.16-1.71s-5.2,.57-7.09,1.71c-1.89,1.15-3.41,2.63-4.55,4.44-1.15,1.81-1.95,3.9-2.43,6.26-.47,2.36-.71,4.77-.71,7.22s.24,4.83,.71,7.15Z"/><path class="cls-1" d="M763.63,83.11v11.35h.24c.79-1.89,1.85-3.64,3.19-5.26,1.34-1.61,2.88-3,4.61-4.14,1.73-1.14,3.59-2.03,5.56-2.66,1.97-.63,4.02-.95,6.15-.95,1.1,0,2.32,.2,3.67,.59v15.61c-.79-.16-1.73-.3-2.84-.41-1.1-.12-2.17-.18-3.19-.18-3.07,0-5.68,.51-7.8,1.54-2.13,1.02-3.84,2.42-5.14,4.2-1.3,1.77-2.23,3.84-2.78,6.2-.55,2.36-.83,4.93-.83,7.69v27.55h-16.79v-61.13h15.96Z"/><path class="cls-1" d="M809.35,129.58c2.52,2.45,6.15,3.67,10.88,3.67,3.39,0,6.31-.85,8.75-2.54,2.44-1.69,3.94-3.49,4.49-5.38h14.78c-2.36,7.33-5.99,12.58-10.88,15.72-4.89,3.16-10.8,4.73-17.74,4.73-4.81,0-9.14-.77-13.01-2.3-3.87-1.54-7.13-3.73-9.81-6.56-2.68-2.84-4.75-6.23-6.21-10.17-1.46-3.94-2.19-8.28-2.19-13.01s.75-8.83,2.25-12.77c1.5-3.94,3.62-7.35,6.39-10.22,2.76-2.88,6.05-5.15,9.88-6.8,3.82-1.66,8.06-2.48,12.71-2.48,5.2,0,9.73,1,13.6,3.01,3.86,2.01,7.03,4.71,9.52,8.1,2.48,3.39,4.28,7.25,5.38,11.59,1.1,4.34,1.5,8.87,1.18,13.6h-44.11c.24,5.44,1.61,9.38,4.14,11.82Zm18.98-32.16c-2.01-2.21-5.06-3.31-9.16-3.31-2.68,0-4.91,.45-6.68,1.36-1.78,.91-3.19,2.03-4.26,3.37-1.06,1.35-1.81,2.76-2.25,4.26-.43,1.5-.69,2.84-.77,4.02h27.32c-.79-4.26-2.19-7.49-4.2-9.7Z"/><path class="cls-1" d="M871.99,83.11v8.51h.36c2.13-3.55,4.88-6.13,8.28-7.75,3.39-1.62,6.86-2.42,10.4-2.42,4.49,0,8.18,.61,11.06,1.83,2.88,1.23,5.15,2.92,6.8,5.09,1.66,2.17,2.82,4.81,3.49,7.92,.67,3.12,1.01,6.56,1.01,10.35v37.6h-16.79v-34.53c0-5.04-.79-8.81-2.36-11.3-1.58-2.48-4.38-3.72-8.4-3.72-4.57,0-7.88,1.36-9.93,4.08-2.05,2.72-3.07,7.19-3.07,13.42v32.05h-16.79v-61.13h15.96Z"/></g></svg>