<svg width="113" height="37" fill="none" xmlns="http://www.w3.org/2000/svg"><path d="M11.379 17.951s3.39-9.625 7.628-9.625c2.788 0 2.336 2.806 2.091 6.385-.339 5.18-1.375 11.735-1.375 12.111 0 .735-.283 1.62.508 1.79 1.281.264 3.73-4.181 3.73-4.181s-3.164 9.474-7.742 9.474c-1.394-.056-2.41-2.054-2.052-4.54.113-.734 1.017-7.722 1.45-12.374.132-1.395.207-2.393-.792-2.562-1.318-.133-3.446 3.522-3.446 3.522zM21.53 3.711a3.705 3.705 0 01-3.71 3.71 3.706 3.706 0 01-3.71-3.71A3.706 3.706 0 0117.82 0a3.706 3.706 0 013.71 3.711zm-1.47-1.356a1.093 1.093 0 00-2.184 0 1.094 1.094 0 002.185 0zM2.169 19.721A14.561 14.561 0 0113.017 5.557L12 2.393C4.937 4.69.002 10.736.002 18.59c-.133 9.25 7.195 16.9 16.463 17.125C8.572 34.3 2.187 28.612 2.187 19.72h-.02.001zm31.625 2.185c-1.77 6.65-7.967 10.605-13.466 11.189l.79 3.39c6.141-.752 12.244-5.48 14.26-13.071 2.486-9.268-3.014-18.818-12.281-21.304a.538.538 0 00-.17-.038c8.231 2.825 13.166 11.227 10.868 19.835v-.001zm7.535-4.445h3.39l1.32-12.357h-3.373L41.328 17.46zm5.312 0h3.315l.546-5.18c.113-1.018.754-1.602 1.564-1.602.79 0 1.261.565 1.148 1.602l-.545 5.18h3.296l.66-6.254c.225-2.166-.83-3.523-2.826-3.523A3.937 3.937 0 0050.82 9.21l.151-1.337h-3.296l-1.036 9.589v-.002zm13.393.075h3.013l4.766-9.625h-3.428l-2.393 5.575-1.224-5.575h-3.485l2.75 9.625zm11.716.15a5.463 5.463 0 004.294-1.94l-1.676-1.525a3.185 3.185 0 01-2.186.98 1.7 1.7 0 01-1.864-1.545v-.02h6.291c.038-.226.075-.47.094-.696.302-2.807-.941-5.218-4.2-5.218a5.396 5.396 0 00-5.274 4.992v.038c-.282 2.957 1.582 4.972 4.54 4.972l-.02-.038zm-1.32-5.783c.283-1.017.943-1.732 1.809-1.732.867 0 1.45.678 1.45 1.732H70.43zm7.046 5.557h3.334l.32-2.957c.226-2.204 1.318-3.202 3.032-3.202h.283l.377-3.541c-1.526-.075-2.524.772-3.202 2.072l.207-1.921H78.53l-1.054 9.55zm11.038.189a4.914 4.914 0 002.354-.546l.282-2.638a3.289 3.289 0 01-1.28.32c-.603 0-.867-.282-.81-.941l.339-3.24h2.185l.282-2.693h-2.184l.263-2.411h-3.296l-.264 2.41h-1.111l-.283 2.694h1.112l-.415 3.88c-.226 2.28.867 3.165 2.844 3.165h-.018zm8.175.037a5.461 5.461 0 004.294-1.94l-1.676-1.525a3.185 3.185 0 01-2.185.98 1.7 1.7 0 01-1.865-1.545v-.02h6.291a8.3 8.3 0 00.094-.696c.302-2.807-.941-5.218-4.2-5.218a5.396 5.396 0 00-5.274 4.992v.038c-.32 2.938 1.564 4.934 4.52 4.934zm-1.3-5.783c.282-1.017.941-1.732 1.808-1.732.866 0 1.45.678 1.45 1.732h-3.258zm7.026 5.557h3.296l.226-2.24.961-1.018 1.525 3.24h3.636l-2.75-5.727L113 7.911h-3.73l-2.901 3.184.678-6.536h-3.296l-1.337 12.902zM39.84 31.739h3.616a5.963 5.963 0 006.103-5.311c.32-2.977-1.714-5.275-4.991-5.275h-3.616L39.84 31.74v-.002zm1.3-1.092l.885-8.382h2.449c2.637 0 4.125 1.846 3.88 4.2v.038a4.6 4.6 0 01-4.766 4.163l-2.448-.02zm9.964 1.092h1.15l.319-3.126c.246-2.355 1.752-3.58 3.428-3.58h.095l.131-1.262c-1.45-.056-2.674.886-3.371 2.185l.207-2.053h-1.15l-.809 7.838v-.002zm5.726 0h1.15l.847-7.817h-1.15l-.847 7.817zm.923-9.53h1.319l.132-1.282h-1.319l-.132 1.281zm5.01 9.606h1.018l4.182-7.893h-1.244l-3.315 6.499-1.902-6.499h-1.263l2.525 7.893zm6.499-3.503h6.14c.038-.19.038-.302.057-.415.245-2.298-.866-4.144-3.165-4.144-2.128 0-3.88 1.808-4.125 4.087-.263 2.43 1.3 4.088 3.41 4.088a4.426 4.426 0 003.334-1.47l-.64-.64a3.606 3.606 0 01-2.562 1.111c-1.375-.018-2.449-.96-2.449-2.618zm.094-.942c.32-1.527 1.45-2.638 2.788-2.638 1.526 0 2.204 1.206 2.185 2.638h-4.973zm9.908 4.539c1.526 0 2.826-.867 2.995-2.355v-.056c.15-1.413-1.093-1.884-2.241-2.242-.999-.32-1.922-.602-1.846-1.337.075-.64.696-1.13 1.62-1.13.794.02 1.563.283 2.203.753l.622-.885a4.87 4.87 0 00-2.694-.867c-1.525 0-2.712.904-2.863 2.242v.037c-.15 1.432 1.149 1.866 2.317 2.205.98.282 1.865.583 1.77 1.374v.038c-.075.754-.809 1.243-1.714 1.243a4.162 4.162 0 01-2.561-1.017l-.678.848a4.84 4.84 0 003.07 1.149zm5.35-.17h.659l.056-.697h-.66l-.056.697zm3.315.057c.245 0 .47-.057.678-.17l.037-.377a1.12 1.12 0 01-.64.208c-.64 0-1.224-.509-1.111-1.865v-.113c.113-1.3.829-1.883 1.394-1.883.244 0 .47.075.659.206l.038-.395a1.356 1.356 0 00-.66-.151c-.847 0-1.752.697-1.883 2.242v.075c-.151 1.564.621 2.223 1.488 2.223zm2.938 0c.829 0 1.64-.848 1.77-2.242v-.056c.132-1.394-.508-2.242-1.355-2.242-.848 0-1.658.848-1.771 2.242v.075c-.15 1.394.527 2.242 1.356 2.223zm.038-.32c-.622 0-1.055-.754-.96-1.922v-.056c.093-1.168.677-1.921 1.299-1.921.621 0 1.055.753.96 1.921v.075c-.113 1.168-.659 1.921-1.3 1.902zm2.693.263h.452l.264-3.013a1.183 1.183 0 011.13-1.187c.546 0 .848.376.772 1.111l-.263 3.07h.452l.263-3.013c0-.64.49-1.15 1.131-1.187.546 0 .848.377.772 1.111l-.263 3.071h.452l.263-3.108c.076-.904-.376-1.376-1.149-1.376-.527 0-1.017.283-1.28.754a.976.976 0 00-1.018-.753c-.49 0-.941.282-1.167.716l.056-.641h-.452l-.415 4.445z" fill="#595959"/></svg>