<?xml version="1.0" encoding="UTF-8" standalone="no"?>
<!-- Created with Inkscape (http://www.inkscape.org/) -->
<svg
   xmlns:svg="http://www.w3.org/2000/svg"
   xmlns="http://www.w3.org/2000/svg"
   xmlns:xlink="http://www.w3.org/1999/xlink"
   version="1.0"
   width="1197.1801"
   height="345.17999"
   id="svg2">
  <defs
     id="defs4">
    <clipPath
       id="clipPath4792">
      <path
         d="M 407.614,714.354 L 528.786,714.354 L 528.786,680.882 L 407.614,680.882 L 407.614,714.354 z"
         id="path4794" />
    </clipPath>
    <clipPath
       id="clipPath4750">
      <path
         d="M 310.089,591.116 L 310.089,596.373 L 319.36,596.373 L 310.089,591.116"
         id="path4752" />
    </clipPath>
    <clipPath
       id="clipPath4738">
      <path
         d="M 316.387,573.171 L 310.089,573.171 L 310.089,591.116 L 319.36,596.373 L 346.601,596.373 L 345.702,589.929 L 316.387,573.171"
         id="path4740" />
    </clipPath>
    <clipPath
       id="clipPath4726">
      <path
         d="M 355.703,573.171 L 316.387,573.171 L 345.702,589.929 L 345.612,589.308 L 355.703,573.171"
         id="path4728" />
    </clipPath>
    <clipPath
       id="clipPath4714">
      <path
         d="M 370.614,573.171 L 355.703,573.171 L 345.612,589.308 L 345.698,589.927 L 345.702,589.929 L 346.601,596.373 L 370.614,596.373 L 370.614,573.171"
         id="path4716" />
    </clipPath>
    <clipPath
       id="clipPath4702">
      <path
         d="M 309.081,590.545 L 309.081,596.373 L 310.089,596.373 L 310.089,591.116 L 309.081,590.545"
         id="path4704" />
    </clipPath>
    <clipPath
       id="clipPath4690">
      <path
         d="M 310.089,573.171 L 309.081,573.171 L 309.081,590.545 L 310.089,591.116 L 310.089,573.171"
         id="path4692" />
    </clipPath>
    <clipPath
       id="clipPath4678">
      <path
         d="M 278.439,573.171 L 228.378,573.171 L 228.378,596.373 L 309.081,596.373 L 309.081,590.545 L 278.439,573.171"
         id="path4680" />
    </clipPath>
    <clipPath
       id="clipPath4666">
      <path
         d="M 309.081,573.171 L 278.439,573.171 L 309.081,590.545 L 309.081,573.171"
         id="path4668" />
    </clipPath>
    <clipPath
       id="clipPath4654">
      <path
         d="M 152.364,573.171 L 123.465,573.171 L 123.465,596.373 L 152.364,596.373 L 152.364,573.171"
         id="path4656" />
    </clipPath>
    <clipPath
       id="clipPath4642">
      <path
         d="M 228.378,573.171 L 152.364,573.171 L 152.364,596.373 L 228.378,596.373 L 228.378,573.171"
         id="path4644" />
    </clipPath>
    <clipPath
       id="clipPath4630">
      <path
         d="M 334.425,604.995 L 332.259,608.478 L 335.007,608.478 L 334.425,604.995"
         id="path4632" />
    </clipPath>
    <clipPath
       id="clipPath4618">
      <path
         d="M 319.36,596.373 L 310.089,596.373 L 310.089,608.478 L 332.259,608.478 L 334.425,604.995 L 334.407,604.905 L 319.36,596.373"
         id="path4620" />
    </clipPath>
    <clipPath
       id="clipPath4606">
      <path
         d="M 346.601,596.373 L 319.36,596.373 L 334.407,604.905 L 334.423,604.999 L 334.425,604.995 L 335.007,608.478 L 348.289,608.478 L 346.601,596.373"
         id="path4608" />
    </clipPath>
    <clipPath
       id="clipPath4594">
      <path
         d="M 370.614,596.373 L 346.601,596.373 L 348.289,608.478 L 370.614,608.478 L 370.614,596.373"
         id="path4596" />
    </clipPath>
    <clipPath
       id="clipPath4582">
      <path
         d="M 310.089,596.373 L 309.081,596.373 L 309.081,608.478 L 310.089,608.478 L 310.089,596.373"
         id="path4584" />
    </clipPath>
    <clipPath
       id="clipPath4570">
      <path
         d="M 152.364,596.373 L 123.465,596.373 L 123.465,608.478 L 152.364,608.478 L 152.364,596.373"
         id="path4572" />
    </clipPath>
    <clipPath
       id="clipPath4558">
      <path
         d="M 309.081,596.373 L 152.364,596.373 L 152.364,608.478 L 309.081,608.478 L 309.081,596.373"
         id="path4560" />
    </clipPath>
    <clipPath
       id="clipPath4546">
      <path
         d="M 335.007,608.478 L 332.259,608.478 L 320.971,626.631 L 338.04,626.631 L 335.007,608.478"
         id="path4548" />
    </clipPath>
    <clipPath
       id="clipPath4534">
      <path
         d="M 332.259,608.478 L 310.089,608.478 L 310.089,626.631 L 320.971,626.631 L 332.259,608.478"
         id="path4536" />
    </clipPath>
    <clipPath
       id="clipPath4522">
      <path
         d="M 348.289,608.478 L 335.007,608.478 L 338.04,626.631 L 350.822,626.631 L 348.289,608.478"
         id="path4524" />
    </clipPath>
    <clipPath
       id="clipPath4510">
      <path
         d="M 370.614,608.478 L 348.289,608.478 L 350.822,626.631 L 370.614,626.631 L 370.614,608.478"
         id="path4512" />
    </clipPath>
    <clipPath
       id="clipPath4498">
      <path
         d="M 310.089,608.478 L 309.081,608.478 L 309.081,626.631 L 310.089,626.631 L 310.089,608.478"
         id="path4500" />
    </clipPath>
    <clipPath
       id="clipPath4486">
      <path
         d="M 338.04,626.631 L 320.971,626.631 L 310.089,644.13 L 310.089,810.231 L 310.182,810.231 L 357.276,741.759 L 338.04,626.631"
         id="path4488" />
    </clipPath>
    <clipPath
       id="clipPath4474">
      <path
         d="M 320.971,626.631 L 310.089,626.631 L 310.089,644.13 L 320.971,626.631"
         id="path4476" />
    </clipPath>
    <clipPath
       id="clipPath4462">
      <path
         d="M 350.822,626.631 L 338.04,626.631 L 338.208,627.639 L 350.962,627.639 L 350.822,626.631"
         id="path4464" />
    </clipPath>
    <clipPath
       id="clipPath4450">
      <path
         d="M 370.614,626.631 L 350.822,626.631 L 350.962,627.639 L 370.614,627.639 L 370.614,626.631"
         id="path4452" />
    </clipPath>
    <clipPath
       id="clipPath4438">
      <path
         d="M 350.962,627.639 L 338.208,627.639 L 357.276,741.759 L 310.182,810.231 L 370.614,810.231 L 370.614,768.517 L 350.962,627.639"
         id="path4440" />
    </clipPath>
    <clipPath
       id="clipPath4426">
      <path
         d="M 370.614,627.639 L 350.962,627.639 L 370.614,768.517 L 370.614,627.639"
         id="path4428" />
    </clipPath>
    <clipPath
       id="clipPath4414">
      <path
         d="M 152.364,608.478 L 123.465,608.478 L 123.465,705.948 L 152.364,705.948 L 152.364,608.478"
         id="path4416" />
    </clipPath>
    <clipPath
       id="clipPath4402">
      <path
         d="M 123.465,871.394 L 370.614,871.394 L 370.614,573.171 L 123.465,573.171 L 123.465,871.394 z"
         id="path4404" />
    </clipPath>
    <clipPath
       id="clipPath4396">
      <path
         d="M 310.089,644.13 L 165.945,875.931 L 264.994,875.931 L 310.182,810.231 L 310.089,810.231 L 310.089,644.13"
         id="path4398" />
    </clipPath>
    <clipPath
       id="clipPath4390">
      <path
         d="M 310.388,677.551 L 281.113,677.551 L 281.113,643.956 L 310.388,643.956 L 310.388,677.551 z"
         id="path4392" />
    </clipPath>
    <clipPath
       id="clipPath4378">
      <path
         d="M 123.465,871.394 L 370.614,871.394 L 370.614,573.171 L 123.465,573.171 L 123.465,871.394 z"
         id="path4380" />
    </clipPath>
    <clipPath
       id="clipPath4372">
      <path
         d="M 310.089,644.13 L 165.945,875.931 L 264.994,875.931 L 310.182,810.231 L 310.089,810.231 L 310.089,644.13"
         id="path4374" />
    </clipPath>
    <clipPath
       id="clipPath4366">
      <path
         d="M 310.388,710.666 L 252.318,710.666 L 252.318,677.071 L 310.388,677.071 L 310.388,710.666 z"
         id="path4368" />
    </clipPath>
    <clipPath
       id="clipPath4354">
      <path
         d="M 123.465,871.394 L 370.614,871.394 L 370.614,573.171 L 123.465,573.171 L 123.465,871.394 z"
         id="path4356" />
    </clipPath>
    <clipPath
       id="clipPath4348">
      <path
         d="M 310.089,644.13 L 165.945,875.931 L 264.994,875.931 L 310.182,810.231 L 310.089,810.231 L 310.089,644.13"
         id="path4350" />
    </clipPath>
    <clipPath
       id="clipPath4342">
      <path
         d="M 310.388,776.896 L 223.283,776.896 L 223.283,710.186 L 310.388,710.186 L 310.388,776.896 z"
         id="path4344" />
    </clipPath>
    <clipPath
       id="clipPath4330">
      <path
         d="M 123.465,871.394 L 370.614,871.394 L 370.614,573.171 L 123.465,573.171 L 123.465,871.394 z"
         id="path4332" />
    </clipPath>
    <clipPath
       id="clipPath4324">
      <path
         d="M 310.089,644.13 L 165.945,875.931 L 264.994,875.931 L 310.182,810.231 L 310.089,810.231 L 310.089,644.13"
         id="path4326" />
    </clipPath>
    <clipPath
       id="clipPath4318">
      <path
         d="M 310.388,810.011 L 194.489,810.011 L 194.489,776.416 L 310.388,776.416 L 310.388,810.011 z"
         id="path4320" />
    </clipPath>
    <clipPath
       id="clipPath4306">
      <path
         d="M 123.465,871.394 L 370.614,871.394 L 370.614,573.171 L 123.465,573.171 L 123.465,871.394 z"
         id="path4308" />
    </clipPath>
    <clipPath
       id="clipPath4300">
      <path
         d="M 310.089,644.13 L 165.945,875.931 L 264.994,875.931 L 310.182,810.231 L 310.089,810.231 L 310.089,644.13"
         id="path4302" />
    </clipPath>
    <clipPath
       id="clipPath4294">
      <path
         d="M 310.388,876.241 L 165.694,876.241 L 165.694,809.531 L 310.388,809.531 L 310.388,876.241 z"
         id="path4296" />
    </clipPath>
    <clipPath
       id="clipPath4282">
      <path
         d="M 123.465,871.394 L 370.614,871.394 L 370.614,573.171 L 123.465,573.171 L 123.465,871.394 z"
         id="path4284" />
    </clipPath>
    <clipPath
       id="clipPath4276">
      <path
         d="M 309.081,608.478 L 152.364,608.478 L 152.364,705.948 L 123.465,705.948 L 123.465,875.931 L 165.945,875.931 L 310.089,644.13 L 310.089,626.631 L 309.081,626.631 L 309.081,608.478"
         id="path4278" />
    </clipPath>
    <clipPath
       id="clipPath4270">
      <path
         d="M 310.388,708.986 L 278.714,708.986 L 278.714,608.201 L 310.388,608.201 L 310.388,708.986 z"
         id="path4272" />
    </clipPath>
    <clipPath
       id="clipPath4258">
      <path
         d="M 123.465,871.394 L 370.614,871.394 L 370.614,573.171 L 123.465,573.171 L 123.465,871.394 z"
         id="path4260" />
    </clipPath>
    <clipPath
       id="clipPath4252">
      <path
         d="M 309.081,608.478 L 152.364,608.478 L 152.364,705.948 L 123.465,705.948 L 123.465,875.931 L 165.945,875.931 L 310.089,644.13 L 310.089,626.631 L 309.081,626.631 L 309.081,608.478"
         id="path4254" />
    </clipPath>
    <clipPath
       id="clipPath4246">
      <path
         d="M 279.194,775.936 L 247.76,775.936 L 247.76,608.201 L 279.194,608.201 L 279.194,775.936 z"
         id="path4248" />
    </clipPath>
    <clipPath
       id="clipPath4234">
      <path
         d="M 123.465,871.394 L 370.614,871.394 L 370.614,573.171 L 123.465,573.171 L 123.465,871.394 z"
         id="path4236" />
    </clipPath>
    <clipPath
       id="clipPath4228">
      <path
         d="M 309.081,608.478 L 152.364,608.478 L 152.364,705.948 L 123.465,705.948 L 123.465,875.931 L 165.945,875.931 L 310.089,644.13 L 310.089,626.631 L 309.081,626.631 L 309.081,608.478"
         id="path4230" />
    </clipPath>
    <clipPath
       id="clipPath4222">
      <path
         d="M 248.239,809.291 L 216.565,809.291 L 216.565,608.201 L 248.239,608.201 L 248.239,809.291 z"
         id="path4224" />
    </clipPath>
    <clipPath
       id="clipPath4210">
      <path
         d="M 123.465,871.394 L 370.614,871.394 L 370.614,573.171 L 123.465,573.171 L 123.465,871.394 z"
         id="path4212" />
    </clipPath>
    <clipPath
       id="clipPath4204">
      <path
         d="M 309.081,608.478 L 152.364,608.478 L 152.364,705.948 L 123.465,705.948 L 123.465,875.931 L 165.945,875.931 L 310.089,644.13 L 310.089,626.631 L 309.081,626.631 L 309.081,608.478"
         id="path4206" />
    </clipPath>
    <clipPath
       id="clipPath4198">
      <path
         d="M 217.045,876.241 L 123.222,876.241 L 123.222,608.201 L 217.045,608.201 L 217.045,876.241 z"
         id="path4200" />
    </clipPath>
    <clipPath
       id="clipPath4186">
      <path
         d="M 370.614,810.231 L 310.182,810.231 L 275.486,860.676 L 370.614,860.676 L 370.614,810.231"
         id="path4188" />
    </clipPath>
    <clipPath
       id="clipPath4174">
      <path
         d="M 123.465,871.394 L 370.614,871.394 L 370.614,573.171 L 123.465,573.171 L 123.465,871.394 z"
         id="path4176" />
    </clipPath>
    <clipPath
       id="clipPath4168">
      <path
         d="M 370.614,860.676 L 275.486,860.676 L 264.994,875.931 L 370.614,875.931 L 370.614,860.676"
         id="path4170" />
    </clipPath>
    <clipPath
       id="clipPath4156">
      <path
         d="M 139.755,405.708 L 105.346,405.708 L 117.231,431.052 L 139.755,431.052 L 139.755,405.708"
         id="path4158" />
    </clipPath>
    <clipPath
       id="clipPath4144">
      <path
         d="M 116.227,428.91 L 103.287,428.91 L 103.287,431.052 L 117.231,431.052 L 116.227,428.91"
         id="path4146" />
    </clipPath>
    <clipPath
       id="clipPath4132">
      <path
         d="M 105.346,405.708 L 103.287,405.708 L 103.287,428.91 L 116.227,428.91 L 105.346,405.708"
         id="path4134" />
    </clipPath>
    <clipPath
       id="clipPath4120">
      <path
         d="M 103.287,428.91 L 90.174,428.91 L 90.174,431.052 L 103.287,431.052 L 103.287,428.91"
         id="path4122" />
    </clipPath>
    <clipPath
       id="clipPath4108">
      <path
         d="M 103.287,405.708 L 88.158,405.708 L 88.158,431.052 L 90.174,431.052 L 90.174,428.91 L 103.287,428.91 L 103.287,405.708"
         id="path4110" />
    </clipPath>
    <clipPath
       id="clipPath4096">
      <path
         d="M 319.32,405.708 L 139.755,405.708 L 139.755,431.052 L 117.231,431.052 L 122.79,442.905 L 341.706,563.46 L 341.724,563.415 L 319.32,405.708"
         id="path4098" />
    </clipPath>
    <clipPath
       id="clipPath4090">
      <path
         d="M 149.57,469.1 L 116.942,469.1 L 116.942,405.466 L 149.57,405.466 L 149.57,469.1 z"
         id="path4092" />
    </clipPath>
    <clipPath
       id="clipPath4078">
      <path
         d="M 319.32,405.708 L 139.755,405.708 L 139.755,431.052 L 117.231,431.052 L 122.79,442.905 L 341.706,563.46 L 341.724,563.415 L 319.32,405.708"
         id="path4080" />
    </clipPath>
    <clipPath
       id="clipPath4072">
      <path
         d="M 213.625,500.557 L 149.09,500.557 L 149.09,405.465 L 213.625,405.465 L 213.625,500.557 z"
         id="path4074" />
    </clipPath>
    <clipPath
       id="clipPath4060">
      <path
         d="M 319.32,405.708 L 139.755,405.708 L 139.755,431.052 L 117.231,431.052 L 122.79,442.905 L 341.706,563.46 L 341.724,563.415 L 319.32,405.708"
         id="path4062" />
    </clipPath>
    <clipPath
       id="clipPath4054">
      <path
         d="M 277.921,532.254 L 213.146,532.254 L 213.146,405.465 L 277.921,405.465 L 277.921,532.254 z"
         id="path4056" />
    </clipPath>
    <clipPath
       id="clipPath4042">
      <path
         d="M 319.32,405.708 L 139.755,405.708 L 139.755,431.052 L 117.231,431.052 L 122.79,442.905 L 341.706,563.46 L 341.724,563.415 L 319.32,405.708"
         id="path4044" />
    </clipPath>
    <clipPath
       id="clipPath4036">
      <path
         d="M 341.976,563.711 L 277.441,563.711 L 277.441,405.465 L 341.976,405.465 L 341.976,563.711 z"
         id="path4038" />
    </clipPath>
    <clipPath
       id="clipPath4024">
      <path
         d="M 373.647,405.708 L 319.32,405.708 L 341.724,563.415 L 341.706,563.46 L 228.378,501.051 L 341.706,563.46 L 373.647,511.975 L 373.647,405.708"
         id="path4026" />
    </clipPath>
    <clipPath
       id="clipPath4012">
      <path
         d="M 310.089,569.57 L 310.089,573.171 L 316.387,573.171 L 310.089,569.57"
         id="path4014" />
    </clipPath>
    <clipPath
       id="clipPath4000">
      <path
         d="M 368.951,551.985 L 348.825,551.985 L 341.706,563.46 L 320.869,551.985 L 310.089,551.985 L 310.089,569.57 L 316.387,573.171 L 355.703,573.171 L 368.951,551.985"
         id="path4002" />
    </clipPath>
    <clipPath
       id="clipPath3988">
      <path
         d="M 373.647,551.985 L 368.951,551.985 L 355.703,573.171 L 370.614,573.171 L 370.614,596.373 L 373.647,596.373 L 373.647,551.985"
         id="path3990" />
    </clipPath>
    <clipPath
       id="clipPath3976">
      <path
         d="M 309.081,568.994 L 309.081,573.171 L 310.089,573.171 L 310.089,569.57 L 309.081,568.994"
         id="path3978" />
    </clipPath>
    <clipPath
       id="clipPath3964">
      <path
         d="M 373.647,511.975 L 348.825,551.985 L 368.951,551.985 L 373.647,544.475 L 373.647,511.975 M 309.081,545.494 L 309.081,568.994 L 310.089,569.57 L 310.089,551.985 L 320.869,551.985 L 309.081,545.494"
         id="path3966" />
    </clipPath>
    <clipPath
       id="clipPath3952">
      <path
         d="M 373.647,544.475 L 368.951,551.985 L 373.647,551.985 L 373.647,544.475"
         id="path3954" />
    </clipPath>
    <clipPath
       id="clipPath3940">
      <path
         d="M 228.378,544.786 L 228.378,573.171 L 278.439,573.171 L 228.378,544.786"
         id="path3942" />
    </clipPath>
    <clipPath
       id="clipPath3928">
      <path
         d="M 228.378,522.86 L 228.378,544.786 L 278.439,573.171 L 309.081,573.171 L 309.081,568.994 L 228.378,522.86"
         id="path3930" />
    </clipPath>
    <clipPath
       id="clipPath3916">
      <path
         d="M 228.378,501.051 L 228.378,522.86 L 309.081,568.994 L 309.081,545.494 L 228.378,501.051"
         id="path3918" />
    </clipPath>
    <clipPath
       id="clipPath3904">
      <path
         d="M 114.6,480.273 L 103.287,499.061 L 103.287,596.373 L 123.465,596.373 L 123.465,573.171 L 152.364,573.171 L 152.364,501.685 L 134.567,491.594 L 134.567,491.594 L 114.6,480.273"
         id="path3906" />
    </clipPath>
    <clipPath
       id="clipPath3892">
      <path
         d="M 125.715,464.172 L 125.697,464.217 L 134.567,491.594 L 152.364,501.685 L 152.364,479.406 L 125.715,464.172"
         id="path3894" />
    </clipPath>
    <clipPath
       id="clipPath3880">
      <path
         d="M 133.792,448.964 L 125.72,464.174 L 152.364,479.406 L 152.364,459.191 L 133.792,448.964 M 125.697,464.217 L 134.567,491.594 L 134.567,491.594 L 125.697,464.217"
         id="path3882" />
    </clipPath>
    <clipPath
       id="clipPath3868">
      <path
         d="M 127.824,445.677 L 103.287,445.677 L 103.287,499.061 L 114.6,480.273 L 134.567,491.594 L 125.697,464.217 L 125.715,464.172 L 133.792,448.964 L 127.824,445.677"
         id="path3870" />
    </clipPath>
    <clipPath
       id="clipPath3856">
      <path
         d="M 152.364,501.685 L 152.364,573.171 L 228.378,573.171 L 228.378,544.786 L 152.364,501.685"
         id="path3858" />
    </clipPath>
    <clipPath
       id="clipPath3844">
      <path
         d="M 152.364,479.406 L 152.364,501.685 L 228.378,544.786 L 228.378,522.86 L 152.364,479.406"
         id="path3846" />
    </clipPath>
    <clipPath
       id="clipPath3832">
      <path
         d="M 152.364,459.191 L 152.364,479.406 L 228.378,522.86 L 228.378,501.051 L 152.364,459.191"
         id="path3834" />
    </clipPath>
    <clipPath
       id="clipPath3820">
      <path
         d="M 123.019,443.031 L 103.287,443.031 L 103.287,445.677 L 127.824,445.677 L 123.019,443.031"
         id="path3822" />
    </clipPath>
    <clipPath
       id="clipPath3808">
      <path
         d="M 117.231,431.052 L 103.287,431.052 L 103.287,443.031 L 123.019,443.031 L 122.79,442.905 L 117.231,431.052"
         id="path3810" />
    </clipPath>
    <clipPath
       id="clipPath3796">
      <path
         d="M 103.287,499.061 L 88.158,524.188 L 88.158,596.373 L 103.287,596.373 L 103.287,499.061"
         id="path3798" />
    </clipPath>
    <clipPath
       id="clipPath3784">
      <path
         d="M 103.287,445.677 L 95.214,445.677 L 95.214,512.469 L 103.287,499.061 L 103.287,445.677"
         id="path3786" />
    </clipPath>
    <clipPath
       id="clipPath3772">
      <path
         d="M 95.214,445.677 L 90.174,445.677 L 90.174,520.84 L 95.214,512.469 L 95.214,445.677"
         id="path3774" />
    </clipPath>
    <clipPath
       id="clipPath3760">
      <path
         d="M 90.174,445.677 L 88.158,445.677 L 88.158,524.188 L 90.174,520.84 L 90.174,445.677"
         id="path3762" />
    </clipPath>
    <clipPath
       id="clipPath3748">
      <path
         d="M 103.287,443.031 L 95.214,443.031 L 95.214,445.677 L 103.287,445.677 L 103.287,443.031"
         id="path3750" />
    </clipPath>
    <clipPath
       id="clipPath3736">
      <path
         d="M 103.287,431.052 L 90.174,431.052 L 90.174,445.677 L 95.214,445.677 L 95.214,443.031 L 103.287,443.031 L 103.287,431.052"
         id="path3738" />
    </clipPath>
    <clipPath
       id="clipPath3724">
      <path
         d="M 90.174,431.052 L 88.158,431.052 L 88.158,445.677 L 90.174,445.677 L 90.174,431.052"
         id="path3726" />
    </clipPath>
    <clipPath
       id="clipPath3712">
      <path
         d="M 139.755,138.498 L 20.721,138.498 L 20.721,195.396 L 20.955,221.808 L 20.991,225.834 L 105.346,405.708 L 139.755,405.708 L 139.755,138.498"
         id="path3714" />
    </clipPath>
    <clipPath
       id="clipPath3706">
      <path
         d="M 50.746,305.772 L 20.517,305.772 L 20.517,138.256 L 50.746,138.256 L 50.746,305.772 z"
         id="path3708" />
    </clipPath>
    <clipPath
       id="clipPath3694">
      <path
         d="M 139.755,138.498 L 20.721,138.498 L 20.721,195.396 L 20.955,221.808 L 20.991,225.834 L 105.346,405.708 L 139.755,405.708 L 139.755,138.498"
         id="path3696" />
    </clipPath>
    <clipPath
       id="clipPath3688">
      <path
         d="M 80.496,372.49 L 50.267,372.49 L 50.267,138.256 L 80.496,138.256 L 80.496,372.49 z"
         id="path3690" />
    </clipPath>
    <clipPath
       id="clipPath3676">
      <path
         d="M 139.755,138.498 L 20.721,138.498 L 20.721,195.396 L 20.955,221.808 L 20.991,225.834 L 105.346,405.708 L 139.755,405.708 L 139.755,138.498"
         id="path3678" />
    </clipPath>
    <clipPath
       id="clipPath3670">
      <path
         d="M 139.995,405.849 L 80.016,405.849 L 80.016,138.256 L 139.995,138.256 L 139.995,405.849 z"
         id="path3672" />
    </clipPath>
    <clipPath
       id="clipPath3658">
      <path
         d="M 20.721,195.396 L 20.721,221.3 L 20.955,221.808 L 20.721,195.396"
         id="path3660" />
    </clipPath>
    <clipPath
       id="clipPath3646">
      <path
         d="M 103.287,401.318 L 103.287,405.708 L 105.346,405.708 L 103.287,401.318"
         id="path3648" />
    </clipPath>
    <clipPath
       id="clipPath3634">
      <path
         d="M 20.721,221.3 L 20.721,431.052 L 88.158,431.052 L 88.158,405.708 L 103.287,405.708 L 103.287,401.318 L 20.991,225.834 L 20.955,221.808 L 20.721,221.3"
         id="path3636" />
    </clipPath>
    <linearGradient
       x1="0"
       y1="0"
       x2="1"
       y2="0"
       id="linearGradient3622"
       gradientUnits="userSpaceOnUse"
       gradientTransform="matrix(322.692,0,0,-322.692,189.37691,357.83413)"
       spreadMethod="pad">
      <stop
         id="stop3624"
         style="stop-color:#5784cc;stop-opacity:1"
         offset="0" />
      <stop
         id="stop3626"
         style="stop-color:#1b62b7;stop-opacity:1"
         offset="1" />
    </linearGradient>
    <clipPath
       id="clipPath3610">
      <path
         d="M 341.706,563.46 L 122.79,442.905 L 20.991,225.834 L 19.038,5.6668 L 262.506,5.7748 L 341.724,563.415 L 341.706,563.46"
         id="path3612" />
    </clipPath>
    <clipPath
       id="clipPath3604">
      <path
         d="M 263.031,9.4738 L 20.721,9.4738 L 20.721,195.396 L 20.721,138.498 L 139.755,138.498 L 139.755,405.708 L 319.32,405.708 L 263.031,9.4738"
         id="path3606" />
    </clipPath>
    <clipPath
       id="clipPath3592">
      <path
         d="M 228.378,596.373 L 378.687,596.373 L 378.687,12.496 L 228.378,12.496 L 228.378,596.373 z"
         id="path3594" />
    </clipPath>
    <clipPath
       id="clipPath3586">
      <path
         d="M 378.687,9.4738 L 263.031,9.4738 L 319.32,405.708 L 373.647,405.708 L 373.647,511.975 L 378.687,503.851 L 378.687,9.4738"
         id="path3588" />
    </clipPath>
    <clipPath
       id="clipPath3580">
      <path
         d="M 292.007,225.079 L 262.713,225.079 L 262.713,9.313 L 292.007,9.313 L 292.007,225.079 z"
         id="path3582" />
    </clipPath>
    <clipPath
       id="clipPath3568">
      <path
         d="M 228.378,596.373 L 378.687,596.373 L 378.687,12.496 L 228.378,12.496 L 228.378,596.373 z"
         id="path3570" />
    </clipPath>
    <clipPath
       id="clipPath3562">
      <path
         d="M 378.687,9.4738 L 263.031,9.4738 L 319.32,405.708 L 373.647,405.708 L 373.647,511.975 L 378.687,503.851 L 378.687,9.4738"
         id="path3564" />
    </clipPath>
    <clipPath
       id="clipPath3556">
      <path
         d="M 349.874,440.365 L 291.526,440.365 L 291.526,9.314 L 349.874,9.314 L 349.874,440.365 z"
         id="path3558" />
    </clipPath>
    <clipPath
       id="clipPath3544">
      <path
         d="M 228.378,596.373 L 378.687,596.373 L 378.687,12.496 L 228.378,12.496 L 228.378,596.373 z"
         id="path3546" />
    </clipPath>
    <clipPath
       id="clipPath3538">
      <path
         d="M 378.687,9.4738 L 263.031,9.4738 L 319.32,405.708 L 373.647,405.708 L 373.647,511.975 L 378.687,503.851 L 378.687,9.4738"
         id="path3540" />
    </clipPath>
    <clipPath
       id="clipPath3532">
      <path
         d="M 378.928,512.127 L 349.394,512.127 L 349.394,9.314 L 378.928,9.314 L 378.928,512.127 z"
         id="path3534" />
    </clipPath>
    <clipPath
       id="clipPath3520">
      <path
         d="M 378.687,551.985 L 373.647,551.985 L 373.647,596.373 L 370.614,596.373 L 378.687,596.373 L 378.687,551.985"
         id="path3522" />
    </clipPath>
    <clipPath
       id="clipPath3508">
      <path
         d="M 378.687,503.851 L 373.647,511.975 L 373.647,544.475 L 378.687,536.415 L 378.687,503.851"
         id="path3510" />
    </clipPath>
    <clipPath
       id="clipPath3496">
      <path
         d="M 378.687,536.415 L 373.647,544.475 L 373.647,551.985 L 378.687,551.985 L 378.687,536.415"
         id="path3498" />
    </clipPath>
    <clipPath
       id="clipPath3484">
      <path
         d="M 20.721,871.394 L 653.126,871.394 L 653.126,12.496 L 20.721,12.496 L 20.721,871.394 z"
         id="path3486" />
    </clipPath>
    <clipPath
       id="clipPath3472">
      <path
         d="M 407.946,604.32 L 387.183,604.32 L 387.183,608.478 L 407.946,608.478 L 407.946,604.32"
         id="path3474" />
    </clipPath>
    <clipPath
       id="clipPath3460">
      <path
         d="M 380.703,551.985 L 378.687,551.985 L 378.687,596.373 L 370.614,596.373 L 370.614,608.478 L 380.703,608.478 L 380.703,551.985"
         id="path3462" />
    </clipPath>
    <clipPath
       id="clipPath3448">
      <path
         d="M 407.946,551.985 L 380.703,551.985 L 380.703,608.478 L 387.183,608.478 L 387.183,604.32 L 407.946,604.32 L 407.946,551.985"
         id="path3450" />
    </clipPath>
    <clipPath
       id="clipPath3436">
      <path
         d="M 411.978,604.32 L 407.946,604.32 L 407.946,608.478 L 411.978,608.478 L 411.978,604.32"
         id="path3438" />
    </clipPath>
    <clipPath
       id="clipPath3424">
      <path
         d="M 411.978,551.985 L 407.946,551.985 L 407.946,604.32 L 411.978,604.32 L 411.978,551.985"
         id="path3426" />
    </clipPath>
    <clipPath
       id="clipPath3412">
      <path
         d="M 380.703,500.602 L 378.687,503.851 L 378.687,536.415 L 380.703,533.191 L 380.703,500.602"
         id="path3414" />
    </clipPath>
    <clipPath
       id="clipPath3400">
      <path
         d="M 380.703,533.191 L 378.687,536.415 L 378.687,551.985 L 380.703,551.985 L 380.703,533.191"
         id="path3402" />
    </clipPath>
    <clipPath
       id="clipPath3388">
      <path
         d="M 407.946,456.69 L 380.703,500.602 L 380.703,533.191 L 407.946,489.624 L 407.946,456.69"
         id="path3390" />
    </clipPath>
    <clipPath
       id="clipPath3376">
      <path
         d="M 407.946,489.624 L 380.703,533.191 L 380.703,551.985 L 407.946,551.985 L 407.946,489.624"
         id="path3378" />
    </clipPath>
    <clipPath
       id="clipPath3364">
      <path
         d="M 537.825,527.523 L 472.917,608.478 L 518.246,608.478 L 537.825,527.523"
         id="path3366" />
    </clipPath>
    <clipPath
       id="clipPath3352">
      <path
         d="M 476.25,604.32 L 411.978,604.32 L 411.978,608.478 L 472.917,608.478 L 476.25,604.32"
         id="path3354" />
    </clipPath>
    <clipPath
       id="clipPath3340">
      <path
         d="M 103.287,608.478 L 653.126,608.478 L 653.126,12.496 L 103.287,12.496 L 103.287,608.478 z"
         id="path3342" />
    </clipPath>
    <clipPath
       id="clipPath3334">
      <path
         d="M 658.407,9.4738 L 427.949,9.4738 L 438.168,407.976 L 407.946,456.69 L 407.946,489.624 L 658.407,89.091 L 658.407,9.4738"
         id="path3336" />
    </clipPath>
    <clipPath
       id="clipPath3328">
      <path
         d="M 658.727,146.929 L 622.491,146.929 L 622.491,9.185 L 658.727,9.185 L 658.727,146.929 z"
         id="path3330" />
    </clipPath>
    <clipPath
       id="clipPath3316">
      <path
         d="M 103.287,608.478 L 653.126,608.478 L 653.126,12.496 L 103.287,12.496 L 103.287,608.478 z"
         id="path3318" />
    </clipPath>
    <clipPath
       id="clipPath3310">
      <path
         d="M 658.407,9.4738 L 427.949,9.4738 L 438.168,407.976 L 407.946,456.69 L 407.946,489.624 L 658.407,89.091 L 658.407,9.4738"
         id="path3312" />
    </clipPath>
    <clipPath
       id="clipPath3304">
      <path
         d="M 622.97,215.561 L 586.733,215.561 L 586.733,9.185 L 622.97,9.185 L 622.97,215.561 z"
         id="path3306" />
    </clipPath>
    <clipPath
       id="clipPath3292">
      <path
         d="M 103.287,608.478 L 653.126,608.478 L 653.126,12.496 L 103.287,12.496 L 103.287,608.478 z"
         id="path3294" />
    </clipPath>
    <clipPath
       id="clipPath3286">
      <path
         d="M 658.407,9.4738 L 427.949,9.4738 L 438.168,407.976 L 407.946,456.69 L 407.946,489.624 L 658.407,89.091 L 658.407,9.4738"
         id="path3288" />
    </clipPath>
    <clipPath
       id="clipPath3280">
      <path
         d="M 587.214,283.953 L 550.977,283.953 L 550.977,9.185 L 587.214,9.185 L 587.214,283.953 z"
         id="path3282" />
    </clipPath>
    <clipPath
       id="clipPath3268">
      <path
         d="M 103.287,608.478 L 653.126,608.478 L 653.126,12.496 L 103.287,12.496 L 103.287,608.478 z"
         id="path3270" />
    </clipPath>
    <clipPath
       id="clipPath3262">
      <path
         d="M 658.407,9.4738 L 427.949,9.4738 L 438.168,407.976 L 407.946,456.69 L 407.946,489.624 L 658.407,89.091 L 658.407,9.4738"
         id="path3264" />
    </clipPath>
    <clipPath
       id="clipPath3256">
      <path
         d="M 551.457,318.269 L 514.981,318.269 L 514.981,9.185 L 551.457,9.185 L 551.457,318.269 z"
         id="path3258" />
    </clipPath>
    <clipPath
       id="clipPath3244">
      <path
         d="M 103.287,608.478 L 653.126,608.478 L 653.126,12.496 L 103.287,12.496 L 103.287,608.478 z"
         id="path3246" />
    </clipPath>
    <clipPath
       id="clipPath3238">
      <path
         d="M 658.407,9.4738 L 427.949,9.4738 L 438.168,407.976 L 407.946,456.69 L 407.946,489.624 L 658.407,89.091 L 658.407,9.4738"
         id="path3240" />
    </clipPath>
    <clipPath
       id="clipPath3232">
      <path
         d="M 515.461,386.901 L 479.225,386.901 L 479.225,9.185 L 515.461,9.185 L 515.461,386.901 z"
         id="path3234" />
    </clipPath>
    <clipPath
       id="clipPath3220">
      <path
         d="M 103.287,608.478 L 653.126,608.478 L 653.126,12.496 L 103.287,12.496 L 103.287,608.478 z"
         id="path3222" />
    </clipPath>
    <clipPath
       id="clipPath3214">
      <path
         d="M 658.407,9.4738 L 427.949,9.4738 L 438.168,407.976 L 407.946,456.69 L 407.946,489.624 L 658.407,89.091 L 658.407,9.4738"
         id="path3216" />
    </clipPath>
    <clipPath
       id="clipPath3208">
      <path
         d="M 479.704,455.533 L 443.468,455.533 L 443.468,9.184 L 479.704,9.184 L 479.704,455.533 z"
         id="path3210" />
    </clipPath>
    <clipPath
       id="clipPath3196">
      <path
         d="M 103.287,608.478 L 653.126,608.478 L 653.126,12.496 L 103.287,12.496 L 103.287,608.478 z"
         id="path3198" />
    </clipPath>
    <clipPath
       id="clipPath3190">
      <path
         d="M 658.407,9.4738 L 427.949,9.4738 L 438.168,407.976 L 407.946,456.69 L 407.946,489.624 L 658.407,89.091 L 658.407,9.4738"
         id="path3192" />
    </clipPath>
    <clipPath
       id="clipPath3184">
      <path
         d="M 443.948,489.849 L 407.712,489.849 L 407.712,9.184 L 443.948,9.184 L 443.948,489.849 z"
         id="path3186" />
    </clipPath>
    <clipPath
       id="clipPath3172">
      <path
         d="M 103.287,608.478 L 653.126,608.478 L 653.126,12.496 L 103.287,12.496 L 103.287,608.478 z"
         id="path3174" />
    </clipPath>
    <clipPath
       id="clipPath3166">
      <path
         d="M 658.407,89.091 L 407.946,489.624 L 407.946,551.985 L 411.978,551.985 L 411.978,604.32 L 476.25,604.32 L 494.771,581.221 L 658.407,376.252 L 658.407,89.091"
         id="path3168" />
    </clipPath>
    <clipPath
       id="clipPath3160">
      <path
         d="M 515.461,364.104 L 479.225,364.104 L 479.225,294.992 L 515.461,294.992 L 515.461,364.104 z"
         id="path3162" />
    </clipPath>
    <clipPath
       id="clipPath3148">
      <path
         d="M 103.287,608.478 L 653.126,608.478 L 653.126,12.496 L 103.287,12.496 L 103.287,608.478 z"
         id="path3150" />
    </clipPath>
    <clipPath
       id="clipPath3142">
      <path
         d="M 658.407,89.091 L 407.946,489.624 L 407.946,551.985 L 411.978,551.985 L 411.978,604.32 L 476.25,604.32 L 494.771,581.221 L 658.407,376.252 L 658.407,89.091"
         id="path3144" />
    </clipPath>
    <clipPath
       id="clipPath3136">
      <path
         d="M 515.461,398.42 L 443.468,398.42 L 443.468,363.624 L 515.461,363.624 L 515.461,398.42 z"
         id="path3138" />
    </clipPath>
    <clipPath
       id="clipPath3124">
      <path
         d="M 103.287,608.478 L 653.126,608.478 L 653.126,12.496 L 103.287,12.496 L 103.287,608.478 z"
         id="path3126" />
    </clipPath>
    <clipPath
       id="clipPath3118">
      <path
         d="M 658.407,89.091 L 407.946,489.624 L 407.946,551.985 L 411.978,551.985 L 411.978,604.32 L 476.25,604.32 L 494.771,581.221 L 658.407,376.252 L 658.407,89.091"
         id="path3120" />
    </clipPath>
    <clipPath
       id="clipPath3112">
      <path
         d="M 658.727,432.736 L 622.491,432.736 L 622.491,88.856 L 658.727,88.856 L 658.727,432.736 z"
         id="path3114" />
    </clipPath>
    <clipPath
       id="clipPath3100">
      <path
         d="M 103.287,608.478 L 653.126,608.478 L 653.126,12.496 L 103.287,12.496 L 103.287,608.478 z"
         id="path3102" />
    </clipPath>
    <clipPath
       id="clipPath3094">
      <path
         d="M 658.407,89.091 L 407.946,489.624 L 407.946,551.985 L 411.978,551.985 L 411.978,604.32 L 476.25,604.32 L 494.771,581.221 L 658.407,376.252 L 658.407,89.091"
         id="path3096" />
    </clipPath>
    <clipPath
       id="clipPath3088">
      <path
         d="M 622.97,467.052 L 586.733,467.052 L 586.733,123.172 L 622.97,123.172 L 622.97,467.052 z"
         id="path3090" />
    </clipPath>
    <clipPath
       id="clipPath3076">
      <path
         d="M 103.287,608.478 L 653.126,608.478 L 653.126,12.496 L 103.287,12.496 L 103.287,608.478 z"
         id="path3078" />
    </clipPath>
    <clipPath
       id="clipPath3070">
      <path
         d="M 658.407,89.091 L 407.946,489.624 L 407.946,551.985 L 411.978,551.985 L 411.978,604.32 L 476.25,604.32 L 494.771,581.221 L 658.407,376.252 L 658.407,89.091"
         id="path3072" />
    </clipPath>
    <clipPath
       id="clipPath3064">
      <path
         d="M 587.214,535.924 L 550.977,535.924 L 550.977,191.804 L 587.214,191.804 L 587.214,535.924 z"
         id="path3066" />
    </clipPath>
    <clipPath
       id="clipPath3052">
      <path
         d="M 103.287,608.478 L 653.126,608.478 L 653.126,12.496 L 103.287,12.496 L 103.287,608.478 z"
         id="path3054" />
    </clipPath>
    <clipPath
       id="clipPath3046">
      <path
         d="M 658.407,89.091 L 407.946,489.624 L 407.946,551.985 L 411.978,551.985 L 411.978,604.32 L 476.25,604.32 L 494.771,581.221 L 658.407,376.252 L 658.407,89.091"
         id="path3048" />
    </clipPath>
    <clipPath
       id="clipPath3040">
      <path
         d="M 551.457,570.24 L 514.981,570.24 L 514.981,226.36 L 551.457,226.36 L 551.457,570.24 z"
         id="path3042" />
    </clipPath>
    <clipPath
       id="clipPath3028">
      <path
         d="M 103.287,608.478 L 653.126,608.478 L 653.126,12.496 L 103.287,12.496 L 103.287,608.478 z"
         id="path3030" />
    </clipPath>
    <clipPath
       id="clipPath3022">
      <path
         d="M 658.407,89.091 L 407.946,489.624 L 407.946,551.985 L 411.978,551.985 L 411.978,604.32 L 476.25,604.32 L 494.771,581.221 L 658.407,376.252 L 658.407,89.091"
         id="path3024" />
    </clipPath>
    <clipPath
       id="clipPath3016">
      <path
         d="M 515.461,604.556 L 407.712,604.556 L 407.712,397.94 L 515.461,397.94 L 515.461,604.556 z"
         id="path3018" />
    </clipPath>
    <clipPath
       id="clipPath3004">
      <path
         d="M 103.287,608.478 L 653.126,608.478 L 653.126,12.496 L 103.287,12.496 L 103.287,608.478 z"
         id="path3006" />
    </clipPath>
    <clipPath
       id="clipPath2998">
      <path
         d="M 658.407,376.252 L 494.771,581.221 L 537.825,527.523 L 518.246,608.478 L 658.407,608.478 L 658.407,376.252"
         id="path3000" />
    </clipPath>
    <clipPath
       id="clipPath2992">
      <path
         d="M 658.727,409.698 L 625.61,409.698 L 625.61,376.102 L 658.727,376.102 L 658.727,409.698 z"
         id="path2994" />
    </clipPath>
    <clipPath
       id="clipPath2980">
      <path
         d="M 103.287,608.478 L 653.126,608.478 L 653.126,12.496 L 103.287,12.496 L 103.287,608.478 z"
         id="path2982" />
    </clipPath>
    <clipPath
       id="clipPath2974">
      <path
         d="M 658.407,376.252 L 494.771,581.221 L 537.825,527.523 L 518.246,608.478 L 658.407,608.478 L 658.407,376.252"
         id="path2976" />
    </clipPath>
    <clipPath
       id="clipPath2968">
      <path
         d="M 658.727,442.814 L 592.733,442.814 L 592.733,409.218 L 658.727,409.218 L 658.727,442.814 z"
         id="path2970" />
    </clipPath>
    <clipPath
       id="clipPath2956">
      <path
         d="M 103.287,608.478 L 653.126,608.478 L 653.126,12.496 L 103.287,12.496 L 103.287,608.478 z"
         id="path2958" />
    </clipPath>
    <clipPath
       id="clipPath2950">
      <path
         d="M 658.407,376.252 L 494.771,581.221 L 537.825,527.523 L 518.246,608.478 L 658.407,608.478 L 658.407,376.252"
         id="path2952" />
    </clipPath>
    <clipPath
       id="clipPath2944">
      <path
         d="M 658.727,475.931 L 560.097,475.931 L 560.097,442.335 L 658.727,442.335 L 658.727,475.931 z"
         id="path2946" />
    </clipPath>
    <clipPath
       id="clipPath2932">
      <path
         d="M 103.287,608.478 L 653.126,608.478 L 653.126,12.496 L 103.287,12.496 L 103.287,608.478 z"
         id="path2934" />
    </clipPath>
    <clipPath
       id="clipPath2926">
      <path
         d="M 658.407,376.252 L 494.771,581.221 L 537.825,527.523 L 518.246,608.478 L 658.407,608.478 L 658.407,376.252"
         id="path2928" />
    </clipPath>
    <clipPath
       id="clipPath2920">
      <path
         d="M 658.727,509.287 L 527.22,509.287 L 527.22,475.451 L 658.727,475.451 L 658.727,509.287 z"
         id="path2922" />
    </clipPath>
    <clipPath
       id="clipPath2908">
      <path
         d="M 103.287,608.478 L 653.126,608.478 L 653.126,12.496 L 103.287,12.496 L 103.287,608.478 z"
         id="path2910" />
    </clipPath>
    <clipPath
       id="clipPath2902">
      <path
         d="M 658.407,376.252 L 494.771,581.221 L 537.825,527.523 L 518.246,608.478 L 658.407,608.478 L 658.407,376.252"
         id="path2904" />
    </clipPath>
    <clipPath
       id="clipPath2896">
      <path
         d="M 658.727,608.635 L 494.583,608.635 L 494.583,508.807 L 658.727,508.807 L 658.727,608.635 z"
         id="path2898" />
    </clipPath>
    <clipPath
       id="clipPath2884">
      <path
         d="M 123.465,596.373 L 103.287,596.373 L 103.287,608.478 L 123.465,608.478 L 123.465,596.373"
         id="path2886" />
    </clipPath>
    <clipPath
       id="clipPath2872">
      <path
         d="M 407.946,608.478 L 387.183,608.478 L 387.183,626.631 L 407.946,626.631 L 407.946,608.478"
         id="path2874" />
    </clipPath>
    <clipPath
       id="clipPath2860">
      <path
         d="M 380.703,608.478 L 370.614,608.478 L 370.614,626.631 L 380.703,626.631 L 380.703,608.478"
         id="path2862" />
    </clipPath>
    <clipPath
       id="clipPath2848">
      <path
         d="M 387.183,608.478 L 380.703,608.478 L 380.703,626.631 L 387.183,626.631 L 387.183,608.478"
         id="path2850" />
    </clipPath>
    <clipPath
       id="clipPath2836">
      <path
         d="M 411.978,608.478 L 407.946,608.478 L 407.946,626.631 L 411.978,626.631 L 411.978,608.478"
         id="path2838" />
    </clipPath>
    <clipPath
       id="clipPath2824">
      <path
         d="M 518.246,608.478 L 472.917,608.478 L 464.214,619.332 L 464.236,619.469 L 465.36,626.631 L 513.856,626.631 L 518.246,608.478"
         id="path2826" />
    </clipPath>
    <clipPath
       id="clipPath2812">
      <path
         d="M 472.917,608.478 L 411.978,608.478 L 411.978,626.631 L 465.261,626.631 L 464.151,619.575 L 464.236,619.469 L 464.214,619.332 L 472.917,608.478"
         id="path2814" />
    </clipPath>
    <clipPath
       id="clipPath2800">
      <path
         d="M 464.236,619.469 L 464.151,619.575 L 465.261,626.631 L 465.36,626.631 L 464.236,619.469"
         id="path2802" />
    </clipPath>
    <clipPath
       id="clipPath2788">
      <path
         d="M 309.081,626.631 L 653.126,626.631 L 653.126,12.496 L 309.081,12.496 L 309.081,626.631 z"
         id="path2790" />
    </clipPath>
    <clipPath
       id="clipPath2782">
      <path
         d="M 658.407,608.478 L 518.246,608.478 L 513.856,626.631 L 658.407,626.631 L 658.407,608.478"
         id="path2784" />
    </clipPath>
    <clipPath
       id="clipPath2770">
      <path
         d="M 407.946,632.157 L 395.121,632.157 L 395.121,727.998 L 407.946,727.998 L 407.946,632.157"
         id="path2772" />
    </clipPath>
    <clipPath
       id="clipPath2758">
      <path
         d="M 407.946,626.631 L 387.183,626.631 L 387.183,745.143 L 407.946,745.143 L 407.946,727.998 L 395.121,727.998 L 395.121,632.157 L 407.946,632.157 L 407.946,626.631"
         id="path2760" />
    </clipPath>
    <clipPath
       id="clipPath2746">
      <path
         d="M 380.703,626.631 L 370.614,626.631 L 370.614,627.639 L 380.703,627.639 L 380.703,626.631"
         id="path2748" />
    </clipPath>
    <clipPath
       id="clipPath2734">
      <path
         d="M 370.614,768.517 L 370.614,810.231 L 376.433,810.231 L 370.614,768.517"
         id="path2736" />
    </clipPath>
    <clipPath
       id="clipPath2722">
      <path
         d="M 387.183,626.631 L 380.703,626.631 L 380.703,627.639 L 370.614,627.639 L 370.614,768.517 L 376.433,810.231 L 407.946,810.231 L 407.946,745.143 L 387.183,745.143 L 387.183,626.631"
         id="path2724" />
    </clipPath>
    <clipPath
       id="clipPath2710">
      <path
         d="M 411.978,632.157 L 407.946,632.157 L 407.946,727.998 L 411.978,727.998 L 411.978,632.157"
         id="path2712" />
    </clipPath>
    <clipPath
       id="clipPath2698">
      <path
         d="M 411.978,727.998 L 407.946,727.998 L 407.946,745.143 L 411.978,745.143 L 411.978,727.998"
         id="path2700" />
    </clipPath>
    <clipPath
       id="clipPath2686">
      <path
         d="M 411.978,626.631 L 407.946,626.631 L 407.946,632.157 L 411.978,632.157 L 411.978,626.631"
         id="path2688" />
    </clipPath>
    <clipPath
       id="clipPath2674">
      <path
         d="M 411.978,745.143 L 407.946,745.143 L 407.946,810.231 L 411.978,810.231 L 411.978,745.143"
         id="path2676" />
    </clipPath>
    <clipPath
       id="clipPath2662">
      <path
         d="M 88.158,524.188 L 20.721,636.187 L 20.721,705.948 L 123.465,705.948 L 123.465,608.478 L 103.287,608.478 L 103.287,596.373 L 88.158,596.373 L 88.158,524.188"
         id="path2664" />
    </clipPath>
    <clipPath
       id="clipPath2650">
      <path
         d="M 88.158,445.677 L 20.721,445.677 L 20.721,636.187 L 88.158,524.188 L 88.158,445.677"
         id="path2652" />
    </clipPath>
    <clipPath
       id="clipPath2638">
      <path
         d="M 20.721,871.394 L 653.126,871.394 L 653.126,12.496 L 20.721,12.496 L 20.721,871.394 z"
         id="path2640" />
    </clipPath>
    <linearGradient
       x1="0"
       y1="0"
       x2="1"
       y2="0"
       id="linearGradient2626"
       gradientUnits="userSpaceOnUse"
       gradientTransform="matrix(354.366,0,0,-354.366,173.25221,758.48713)"
       spreadMethod="pad">
      <stop
         id="stop2628"
         style="stop-color:#5784cc;stop-opacity:1"
         offset="0" />
      <stop
         id="stop2630"
         style="stop-color:#1b62b7;stop-opacity:1"
         offset="1" />
    </linearGradient>
    <clipPath
       id="clipPath2614">
      <path
         d="M 2.91,889.908 L 4.116,663.765 L 114.6,480.273 L 334.407,604.905 L 357.276,741.759 L 255.207,890.16 L 2.91,889.908"
         id="path2616" />
    </clipPath>
    <clipPath
       id="clipPath2608">
      <path
         d="M 20.721,636.187 L 20.721,875.931 L 165.945,875.931 L 123.465,875.931 L 123.465,705.948 L 20.721,705.948 L 20.721,636.187"
         id="path2610" />
    </clipPath>
    <clipPath
       id="clipPath2596">
      <path
         d="M 376.433,810.231 L 370.614,810.231 L 370.614,860.676 L 383.47,860.676 L 376.433,810.231"
         id="path2598" />
    </clipPath>
    <clipPath
       id="clipPath2584">
      <path
         d="M 407.946,810.231 L 376.433,810.231 L 383.47,860.676 L 407.946,860.676 L 407.946,810.231"
         id="path2586" />
    </clipPath>
    <clipPath
       id="clipPath2566">
      <path
         d="M 481.214,727.998 L 411.978,727.998 L 411.978,745.143 L 483.912,745.143 L 481.214,727.998"
         id="path2568" />
    </clipPath>
    <clipPath
       id="clipPath2554">
      <path
         d="M 495.12,727.998 L 489.341,727.998 L 485.195,745.143 L 495.12,745.143 L 495.12,727.998 M 481.269,727.998 L 481.214,727.998 L 483.912,745.143 L 483.96,745.143 L 481.269,727.998"
         id="path2556" />
    </clipPath>
    <clipPath
       id="clipPath2542">
      <path
         d="M 465.261,626.631 L 411.978,626.631 L 411.978,632.157 L 466.131,632.157 L 465.261,626.631"
         id="path2544" />
    </clipPath>
    <clipPath
       id="clipPath2530">
      <path
         d="M 465.36,626.631 L 465.261,626.631 L 466.131,632.157 L 466.227,632.157 L 465.36,626.631"
         id="path2532" />
    </clipPath>
    <clipPath
       id="clipPath2514">
      <path
         d="M 20.721,871.394 L 653.126,871.394 L 653.126,12.496 L 20.721,12.496 L 20.721,871.394 z"
         id="path2516" />
    </clipPath>
    <linearGradient
       x1="0"
       y1="0"
       x2="1"
       y2="0"
       id="linearGradient2500"
       gradientUnits="userSpaceOnUse"
       gradientTransform="matrix(393.413,-717.223,-717.223,-393.413,427.00391,850.44913)"
       spreadMethod="pad">
      <stop
         id="stop2502"
         style="stop-color:#cf171e;stop-opacity:1"
         offset="0" />
      <stop
         id="stop2504"
         style="stop-color:#b8141a;stop-opacity:1"
         offset="1" />
      <stop
         id="stop2506"
         style="stop-color:#b8141a;stop-opacity:1"
         offset="1" />
    </linearGradient>
    <clipPath
       id="clipPath2488">
      <path
         d="M 265.305,895.101 L 125.697,464.217 L 379.416,-13.845 L 693.435,-6.0602 L 674.517,356.073 L 464.151,619.575 L 506.532,888.882 L 265.305,895.101"
         id="path2490" />
    </clipPath>
    <clipPath
       id="clipPath2482">
      <path
         d="M 483.912,745.143 L 411.978,745.143 L 411.978,810.231 L 407.946,810.231 L 407.946,860.676 L 383.47,860.676 L 385.597,875.931 L 504.494,875.931 L 483.912,745.143"
         id="path2484" />
    </clipPath>
    <clipPath
       id="clipPath2470">
      <path
         d="M 20.721,871.394 L 653.126,871.394 L 653.126,12.496 L 20.721,12.496 L 20.721,871.394 z"
         id="path2472" />
    </clipPath>
    <linearGradient
       x1="0"
       y1="0"
       x2="1"
       y2="0"
       id="linearGradient7375"
       xlink:href="#linearGradient2500"
       gradientUnits="userSpaceOnUse"
       gradientTransform="matrix(393.413,-717.223,-717.223,-393.413,427.00391,850.44913)"
       spreadMethod="pad" />
    <linearGradient
       x1="0"
       y1="0"
       x2="1"
       y2="0"
       id="linearGradient7397"
       xlink:href="#linearGradient2626"
       gradientUnits="userSpaceOnUse"
       gradientTransform="matrix(354.366,0,0,-354.366,173.25221,758.48713)"
       spreadMethod="pad" />
    <linearGradient
       x1="0"
       y1="0"
       x2="1"
       y2="0"
       id="linearGradient7564"
       xlink:href="#linearGradient3622"
       gradientUnits="userSpaceOnUse"
       gradientTransform="matrix(322.692,0,0,-322.692,189.37691,357.83413)"
       spreadMethod="pad" />
    <linearGradient
       x1="0"
       y1="0"
       x2="1"
       y2="0"
       id="linearGradient7916"
       xlink:href="#linearGradient3622"
       gradientUnits="userSpaceOnUse"
       gradientTransform="matrix(322.692,0,0,-322.692,189.37691,357.83413)"
       spreadMethod="pad" />
    <linearGradient
       x1="0"
       y1="0"
       x2="1"
       y2="0"
       id="linearGradient8024"
       xlink:href="#linearGradient2626"
       gradientUnits="userSpaceOnUse"
       gradientTransform="matrix(354.366,0,0,-354.366,173.25221,758.48713)"
       spreadMethod="pad" />
    <linearGradient
       x1="0"
       y1="0"
       x2="1"
       y2="0"
       id="linearGradient8037"
       xlink:href="#linearGradient2500"
       gradientUnits="userSpaceOnUse"
       gradientTransform="matrix(393.413,-717.223,-717.223,-393.413,427.00391,850.44913)"
       spreadMethod="pad" />
    <linearGradient
       x1="0"
       y1="0"
       x2="1"
       y2="0"
       id="linearGradient8043"
       xlink:href="#linearGradient2500"
       gradientUnits="userSpaceOnUse"
       gradientTransform="matrix(393.413,-717.223,-717.223,-393.413,427.00391,850.44913)"
       spreadMethod="pad" />
    <linearGradient
       x1="0"
       y1="0"
       x2="1"
       y2="0"
       id="linearGradient8047"
       xlink:href="#linearGradient2626"
       gradientUnits="userSpaceOnUse"
       gradientTransform="matrix(354.366,0,0,-354.366,173.25221,758.48713)"
       spreadMethod="pad" />
    <linearGradient
       x1="0"
       y1="0"
       x2="1"
       y2="0"
       id="linearGradient8096"
       xlink:href="#linearGradient3622"
       gradientUnits="userSpaceOnUse"
       gradientTransform="matrix(322.692,0,0,-322.692,189.37691,357.83413)"
       spreadMethod="pad" />
    <linearGradient
       x1="0"
       y1="0"
       x2="1"
       y2="0"
       id="linearGradient8167"
       xlink:href="#linearGradient3622"
       gradientUnits="userSpaceOnUse"
       gradientTransform="matrix(322.692,0,0,-322.692,189.37691,357.83413)"
       spreadMethod="pad" />
    <linearGradient
       x1="0"
       y1="0"
       x2="1"
       y2="0"
       id="linearGradient8170"
       xlink:href="#linearGradient3622"
       gradientUnits="userSpaceOnUse"
       gradientTransform="matrix(403.365,0,0,403.365,-2.1497525,723.21504)"
       spreadMethod="pad" />
    <linearGradient
       x1="0"
       y1="0"
       x2="1"
       y2="0"
       id="linearGradient8194"
       xlink:href="#linearGradient2626"
       gradientUnits="userSpaceOnUse"
       gradientTransform="matrix(354.366,0,0,-354.366,173.25221,758.48713)"
       spreadMethod="pad" />
    <linearGradient
       x1="0"
       y1="0"
       x2="1"
       y2="0"
       id="linearGradient8197"
       xlink:href="#linearGradient2626"
       gradientUnits="userSpaceOnUse"
       gradientTransform="matrix(442.9575,0,0,442.9575,-22.305628,222.39879)"
       spreadMethod="pad" />
    <linearGradient
       x1="0"
       y1="0"
       x2="1"
       y2="0"
       id="linearGradient8199"
       xlink:href="#linearGradient2500"
       gradientUnits="userSpaceOnUse"
       gradientTransform="matrix(393.413,-717.223,-717.223,-393.413,427.00391,850.44913)"
       spreadMethod="pad" />
    <linearGradient
       x1="0"
       y1="0"
       x2="1"
       y2="0"
       id="linearGradient8202"
       xlink:href="#linearGradient2500"
       gradientUnits="userSpaceOnUse"
       gradientTransform="matrix(491.76625,896.52875,-896.52875,491.76625,294.884,107.44629)"
       spreadMethod="pad" />
  </defs>
  <g
     transform="translate(1.4461602,-1.3608851e-2)"
     id="layer1">
    <g
       transform="matrix(7.7720117,0,0,7.7720117,-69.028562,-145.5329)"
       id="g8221">
      <path
         d="M 9.9824107,20.013611 L 16.519911,20.013611 L 16.519911,45.891111 L 26.597411,35.049861 L 34.987411,35.049861 L 23.764911,46.927361 L 35.694911,61.198611 L 27.033661,61.198611 L 16.628661,47.851111 L 16.519911,47.851111 L 16.519911,61.198611 L 9.9824107,61.198611"
         id="path4766"
         style="fill:#1b62b7;fill-opacity:1;fill-rule:nonzero;stroke:none" />
      <path
         d="M 33.631161,48.124861 C 33.631161,56.349861 39.949911,61.853611 47.849911,61.853611 C 55.748661,61.853611 62.067411,56.349861 62.067411,48.124861 C 62.067411,39.899861 55.748661,34.396111 47.849911,34.396111 C 39.949911,34.396111 33.631161,39.899861 33.631161,48.124861 M 40.168661,48.124861 C 40.168661,44.038611 43.056161,40.279861 47.849911,40.279861 C 52.643661,40.279861 55.531161,44.038611 55.531161,48.124861 C 55.531161,52.209861 52.643661,55.968611 47.849911,55.968611 C 43.056161,55.968611 40.168661,52.209861 40.168661,48.124861"
         id="path4770"
         style="fill:#1b62b7;fill-opacity:1;fill-rule:nonzero;stroke:none" />
      <path
         d="M 65.087411,35.049861 L 71.296161,35.049861 L 71.296161,39.136111 L 71.406161,39.136111 C 72.549911,36.684861 75.056161,34.396111 79.412411,34.396111 C 83.446161,34.396111 86.223661,35.976111 87.584911,39.244861 C 89.492411,35.922361 92.271161,34.396111 96.193661,34.396111 C 103.16616,34.396111 105.61741,39.353611 105.61741,45.617361 L 105.61741,61.198611 L 99.081161,61.198611 L 99.081161,46.381111 C 99.081161,43.112361 98.101161,40.279861 94.231161,40.279861 C 90.146161,40.279861 88.621161,43.657361 88.621161,47.036111 L 88.621161,61.198611 L 82.084911,61.198611 L 82.084911,45.617361 C 82.084911,42.404861 80.774911,40.279861 77.617411,40.279861 C 73.312411,40.279861 71.623661,43.438611 71.623661,46.926111 L 71.623661,61.198611 L 65.087411,61.198611"
         id="path4774"
         style="fill:#1b62b7;fill-opacity:1;fill-rule:nonzero;stroke:none" />
      <path
         d="M 126.50991,61.198611 L 132.39241,61.198611 L 132.39241,46.162361 C 132.39241,42.458611 132.39241,34.396111 121.22616,34.396111 C 117.08616,34.396111 112.99991,35.648611 110.11116,38.591111 L 113.54491,42.022361 C 115.28866,40.387361 117.79366,39.298611 120.51741,39.298611 C 124.00366,39.298611 126.50991,40.988611 126.50991,44.202361 L 126.50991,44.909861 L 124.87616,44.909861 C 118.33866,44.909861 108.42366,45.508611 108.42366,54.008611 C 108.42366,59.183611 113.10991,61.852361 117.95741,61.852361 C 121.44366,61.852361 124.49491,60.544861 126.34741,57.604861 L 126.50991,57.604861 L 126.50991,61.198611 z M 126.12866,50.958611 C 126.12866,54.606111 124.00366,56.949861 119.53616,56.949861 C 117.41241,56.949861 114.96116,55.913611 114.96116,53.518611 C 114.96116,49.759861 121.17241,49.486111 124.76741,49.486111 L 126.12866,49.486111"
         id="path4778"
         style="fill:#1b62b7;fill-opacity:1;fill-rule:nonzero;stroke:none" />
      <path
         d="M 136.01741,35.042361 L 142.47366,35.042361 L 147.58241,42.006111 L 144.25241,46.547361"
         id="path4782"
         style="fill:#1b62b7;fill-opacity:1;fill-rule:nonzero;stroke:none" />
      <path
         d="M 144.20116,49.509861 L 147.53116,54.056111 L 142.47366,61.187361 L 136.01866,61.187361"
         id="path4786"
         style="fill:#1b62b7;fill-opacity:1;fill-rule:nonzero;stroke:none" />
      <path
         d="M 151.89241,48.062361 L 161.44616,35.042361 L 154.84241,35.042361 L 145.27241,48.062361 L 154.84241,61.188611 L 161.44616,61.188611"
         id="path4798"
         style="fill:#ed1c24;fill-opacity:1;fill-rule:nonzero;stroke:none" />
    </g>
  </g>
</svg>
