<svg width="96" height="27" viewBox="0 0 96 27" fill="none" xmlns="http://www.w3.org/2000/svg">
<g clip-path="url(#clip0_627_102)">
<path d="M0 26.5454H6.16504V20.7611C6.16504 17.2828 6.75222 17.2532 9.27649 17.2532H13.7832C21.3429 17.2532 23.7646 11.8364 23.7942 8.88604C23.7653 1.97207 18.0848 0.0205078 15.0312 0.0205078C14.3553 0.0205078 0.0144658 0.0494393 0.0144658 0.0494393V5.26106C4.79934 5.26106 13.3723 5.27552 14.3553 5.27552C15.3396 5.27552 17.6877 5.96593 17.6877 8.50467C17.6877 11.0447 15.3245 11.8371 14.3553 11.8371H7.94104C6.16504 11.8364 0 11.8364 0 20.1016V26.5454Z" fill="#505050"/>
<path d="M25.7617 0.0205078H31.9557V17.2532C31.9557 17.2532 31.9557 21.0991 37.3869 21.0991C42.6564 21.1721 42.6709 17.0033 42.6564 17.2525V0.0205078H48.9096V17.2532C48.9096 18.4867 48.9096 26.5454 37.3869 26.5888C25.8492 26.5454 25.7617 18.4867 25.7617 17.2532V0.0205078Z" fill="#505050"/>
<path d="M52.813 0.0205078H58.9346V17.2532C58.9346 19.1765 60.0215 21.1576 63.2211 21.1576H71.1181V26.5454C71.1181 26.5454 66.0682 26.5888 62.077 26.5888C58.934 26.5454 52.8136 24.0639 52.8136 17.2532L52.813 0.0205078Z" fill="#505050"/>
<path d="M72.7033 26.589H87.3381C90.4791 26.5456 95.5875 25.1503 95.6026 18.7946C95.5875 12.4237 91.0222 10.6333 87.3374 10.6333C83.8446 10.6333 82.3178 10.5596 80.0717 10.6333C78.9709 10.6333 76.6669 10.6333 76.6669 8.10835C76.6669 5.49531 78.9709 5.49531 80.0723 5.51043C81.173 5.49531 94.4427 5.49531 94.4427 5.51043V0.0200195H79.1616C76.9602 0.0200195 71.7052 1.28249 71.7203 7.74144C71.7052 12.8498 73.5838 16.0349 81.1434 16.1079C84.1089 16.0356 85.2247 16.0356 87.9686 16.0356C90.6698 16.0356 90.6698 18.6184 90.6698 18.6184C90.6698 18.6184 90.6698 21.1578 87.9693 21.1578C85.0189 21.1578 72.6303 21.1722 72.704 21.1578L72.7033 26.589Z" fill="#505050"/>
</g>
<defs>
<clipPath id="clip0_627_102">
<rect width="96" height="26.9589" fill="white" transform="translate(0 0.0205078)"/>
</clipPath>
</defs>
</svg>
